<?xml version="1.0" encoding="UTF-8" standalone="no"?>
<svg
   width="16.000219"
   height="15.976023"
   viewBox="0 0 4.2333913 4.2269895"
   version="1.1"
   id="svg4268"
   xmlns="http://www.w3.org/2000/svg"
   xmlns:svg="http://www.w3.org/2000/svg"
   xmlns:rdf="http://www.w3.org/1999/02/22-rdf-syntax-ns#"
   xmlns:cc="http://creativecommons.org/ns#"
   xmlns:dc="http://purl.org/dc/elements/1.1/">
  <defs
     id="defs4262" />
  <metadata
     id="metadata4265">
    <rdf:RDF>
      <cc:Work
         rdf:about="">
        <dc:format>image/svg+xml</dc:format>
        <dc:type
           rdf:resource="http://purl.org/dc/dcmitype/StillImage" />
      </cc:Work>
    </rdf:RDF>
  </metadata>
  <g
     id="control-flow"
     style="display:inline"
     transform="translate(-1.3234595,-44.323574)">
    <g
       id="path4594-0">
      <path
         style="color:#000000;fill:#000000;fill-opacity:0;stroke-width:0.529167;stroke-linecap:round;stroke-linejoin:round;-inkscape-stroke:none"
         d="M 3.4395833,45.116658 5.2916664,44.587492 4.7624997,46.439575"
         id="path4038" />
      <path
         style="color:#000000;fill:#000000;stroke-linecap:round;stroke-linejoin:round;-inkscape-stroke:none"
         d="m 5.21875,44.333984 -1.8515625,0.527344 a 0.2645835,0.2645835 0 0 0 -0.1816406,0.328125 0.2645835,0.2645835 0 0 0 0.3261719,0.181641 L 4.90625,44.972656 4.5078125,46.367187 a 0.2645835,0.2645835 0 0 0 0.1816406,0.326172 0.2645835,0.2645835 0 0 0 0.328125,-0.18164 L 5.546875,44.660156 A 0.26460996,0.26460996 0 0 0 5.21875,44.333984 Z"
         id="path4040" />
    </g>
    <path
       style="color:#000000;fill:#000000;stroke-linecap:round;stroke-dasharray:1.5875, 1.5875;-inkscape-stroke:none"
       d="M 4.5761719,44.923828 3.453125,46.046875 c -0.1038758,0.10342 -0.1038758,0.27158 0,0.375 0.1031956,0.102575 0.2698513,0.102575 0.3730469,0 l 1.1230468,-1.123047 c 0.1038758,-0.10342 0.1038758,-0.27158 0,-0.375 -0.1031956,-0.102575 -0.2698512,-0.102575 -0.3730468,0 z m -1.8338576,1.833858 -1.3419237,1.341923 c -0.1025748,0.103196 -0.1025748,0.269851 0,0.373047 0.1034196,0.103876 0.2715804,0.103876 0.375,0 l 1.3419237,-1.341923 c 0.1025749,-0.103196 0.1025749,-0.269852 0,-0.373047 -0.1034196,-0.103876 -0.2715803,-0.103876 -0.375,0 z"
       id="path2917" />
  </g>
</svg>
